<?xml version="1.0" encoding="UTF-8" standalone="no"?>
<!-- Created with Inkscape (http://www.inkscape.org/) -->

<svg
   version="1.1"
   id="svg2"
   width="333.33334"
   height="333.33334"
   viewBox="0 0 333.33334 333.33334"
   sodipodi:docname="Enzo_Glow_Icon_Green_250x250.eps"
   xmlns:inkscape="http://www.inkscape.org/namespaces/inkscape"
   xmlns:sodipodi="http://sodipodi.sourceforge.net/DTD/sodipodi-0.dtd"
   xmlns="http://www.w3.org/2000/svg"
   xmlns:svg="http://www.w3.org/2000/svg">
  <defs
     id="defs6" />
  <sodipodi:namedview
     id="namedview4"
     pagecolor="#ffffff"
     bordercolor="#000000"
     borderopacity="0.25"
     inkscape:showpageshadow="2"
     inkscape:pageopacity="0.0"
     inkscape:pagecheckerboard="0"
     inkscape:deskcolor="#d1d1d1" />
  <g
     id="g8"
     inkscape:groupmode="layer"
     inkscape:label="ink_ext_XXXXXX"
     transform="matrix(1.3333333,0,0,-1.3333333,0,333.33333)">
    <g
       id="g10"
       transform="scale(0.1)">
      <path
         d="m 1900.09,476.531 c -273.58,371.059 -757.16,400.5 -757.16,400.5 118.72,77.141 583.29,-16.59 486.82,33.11 -96.47,49.699 -482.65,18.449 -482.65,18.449 208.41,130.64 430.67,102.61 361.67,124.46 -69,21.85 -407.83,-65.089 -407.83,-65.089 459.64,286.029 910.16,343.279 910.16,343.279 0,0 4.72,-45.3 66.82,-156.37 62.11,-111.07 55.02,-227.96 55.02,-227.96 -292.49,68.66 -503.04,-14.14 -360.87,-1.289 142.17,12.859 353.1,-31.34 353.1,-31.34 38.52,-249.222 -225.08,-437.75 -225.08,-437.75 z M 1759.11,340.93 c -99.73,123.91 -212.27,215.211 -212.27,215.211 -270.01,228.179 -478.46,267.339 -478.46,267.339 399.73,-15.332 757.95,-398.769 757.95,-398.769 11.16,-21.449 -67.22,-83.781 -67.22,-83.781 z m -643.86,716.09 c -54.96,-34.08 -75.53,-19.56 -75.53,-19.56 309.99,458.1 150.2,273.03 150.2,273.03 L 995.43,1056.96 c 263.58,535.44 128.19,303.02 128.19,303.02 L 960.293,1081.5 c 114.857,250.71 235.267,1048.73 235.267,1048.73 37.75,4.77 67.65,-35.67 90.09,-63.48 22.44,-27.82 -141.64,-666.68 -98.37,-591.53 43.27,75.14 132.17,569.92 132.17,569.92 35.1,-15.33 127.38,-126.61 127.38,-126.61 61.65,5.86 106.36,-74.91 106.36,-74.91 -37.71,-127.23 -137.68,-338.41 -185.13,-435.68 -7.32,-15.01 9.45,-30.3 23.74,-21.66 273.66,165.49 449.02,231.55 449.02,231.55 128.92,-85.13 104.11,-219.49 104.11,-219.49 -300.5,0.81 -829.68,-341.32 -829.68,-341.32 z m -780.594,791.41 c 19.285,77.22 127.86,126.11 127.86,126.11 234.855,-192.54 349.925,-704.21 325.039,-496.48 -24.887,207.72 -276.77,538.69 -276.77,538.69 83.723,107.56 103.492,57.13 159.195,112.07 55.7,54.94 109.653,38.23 109.653,38.23 39.746,-70.69 137.281,-331.63 127.691,-263.67 -9.59,67.96 -62.453,243.1 -62.453,243.1 77.067,53.53 223.249,0.33 223.249,0.33 75.68,-112.17 -144.557,-991.58 -144.557,-991.58 -17.165,-89.71 -36.063,-123.05 -36.063,-123.05 34.684,317.12 -98.039,379.02 -51.34,286.59 68.844,-136.27 5.61,-354.168 5.61,-354.168 17.093,291.578 -507.114,883.828 -507.114,883.828 z M 2233.71,973.879 c -14.31,113.261 -128.61,312.711 -188.88,508.011 -60.26,195.31 -175.71,228.79 -175.71,228.79 -79.1,16.89 -402.59,-217.27 -402.59,-217.27 186.49,241.39 194.85,359.52 183.65,375.94 -11.21,16.42 -49.79,73.27 -73.51,97.33 -23.73,24.05 -122.99,33.53 -122.99,33.53 0,0 -77.37,86.03 -142.35,144.32 -64.98,58.28 -100.2,56.01 -126.59,57.45 -26.4,1.44 -170.56,64.04 -232.248,53.15 -61.683,-10.9 -185,-25.13 -268.066,-37.14 -83.071,-12 -175.602,-120.75 -212.332,-159.47 -36.731,-38.73 -102.246,-58.4 -131.328,-82.09 -29.082,-23.69 -107.641,-111.16 -61.473,-163.03 46.164,-51.87 163.344,-198.52 163.344,-198.52 C 932.711,1024.33 743.715,799.691 697.512,752.078 649.453,702.551 508.629,562.809 508.629,562.809 c 0,0 -230.91,-234.469 -210.914,-252.207 19.996,-17.743 220.848,117.929 220.848,117.929 21.66,41.34 39.605,69.028 238.324,260.039 198.715,191 403.973,53.801 669.343,-119.019 265.37,-172.832 299.59,-316.403 338.5,-325.469 38.92,-9.07 105.14,113.688 117.85,133.719 12.71,20.031 60.61,37.308 155.45,115.871 94.84,78.558 209.99,366.949 195.68,480.207"
         style="fill:#97b893;fill-opacity:1;fill-rule:nonzero;stroke:none"
         id="path12" />
    </g>
  </g>
</svg>
