<?xml version="1.0" encoding="UTF-8" standalone="no"?>
<!-- Created with Inkscape (http://www.inkscape.org/) -->

<svg
   version="1.1"
   id="svg2"
   width="666.66669"
   height="333.33334"
   viewBox="0 0 666.66669 333.33334"
   sodipodi:docname="Enzo_Glow_Logo_White_500x250.eps"
   xmlns:inkscape="http://www.inkscape.org/namespaces/inkscape"
   xmlns:sodipodi="http://sodipodi.sourceforge.net/DTD/sodipodi-0.dtd"
   xmlns="http://www.w3.org/2000/svg"
   xmlns:svg="http://www.w3.org/2000/svg">
  <defs
     id="defs6" />
  <sodipodi:namedview
     id="namedview4"
     pagecolor="#ffffff"
     bordercolor="#000000"
     borderopacity="0.25"
     inkscape:showpageshadow="2"
     inkscape:pageopacity="0.0"
     inkscape:pagecheckerboard="0"
     inkscape:deskcolor="#d1d1d1" />
  <g
     id="g8"
     inkscape:groupmode="layer"
     inkscape:label="ink_ext_XXXXXX"
     transform="matrix(1.3333333,0,0,-1.3333333,0,333.33333)">
    <g
       id="g10"
       transform="scale(0.1)">
      <path
         d="m 4715.43,1371 c -165.84,224.93 -458.97,242.77 -458.97,242.77 71.96,46.76 353.57,-10.05 295.09,20.08 -58.48,30.12 -292.57,11.18 -292.57,11.18 126.33,79.19 261.07,62.2 219.24,75.45 -41.83,13.24 -247.22,-39.46 -247.22,-39.46 278.63,173.38 551.72,208.09 551.72,208.09 0,0 2.86,-27.46 40.51,-94.79 37.64,-67.33 33.34,-138.18 33.34,-138.18 -177.3,41.61 -304.92,-8.57 -218.74,-0.78 86.17,7.79 214.03,-19 214.03,-19 C 4875.21,1485.28 4715.43,1371 4715.43,1371 Z m -85.46,-82.19 c -60.46,75.11 -128.67,130.45 -128.67,130.45 -163.68,138.32 -290.04,162.05 -290.04,162.05 242.31,-9.29 459.45,-241.72 459.45,-241.72 6.77,-13 -40.74,-50.78 -40.74,-50.78 z m -390.29,434.07 c -33.32,-20.66 -45.79,-11.85 -45.79,-11.85 187.91,277.68 91.05,165.5 91.05,165.5 l -117.9,-153.69 c 159.78,324.57 77.71,183.69 77.71,183.69 l -99,-168.81 c 69.62,151.98 142.61,635.71 142.61,635.71 22.88,2.9 41.01,-21.62 54.61,-38.48 13.6,-16.86 -85.86,-404.12 -59.63,-358.57 26.23,45.55 80.12,345.48 80.12,345.48 21.27,-9.3 77.21,-76.75 77.21,-76.75 37.37,3.55 64.47,-45.41 64.47,-45.41 -22.85,-77.12 -83.46,-205.14 -112.22,-264.1 -4.44,-9.1 5.73,-18.37 14.39,-13.13 165.89,100.31 272.19,140.36 272.19,140.36 78.15,-51.6 63.11,-133.05 63.11,-133.05 -182.16,0.49 -502.93,-206.9 -502.93,-206.9 z m -473.18,479.73 c 11.69,46.81 77.51,76.44 77.51,76.44 142.36,-116.7 212.11,-426.86 197.03,-300.95 -15.09,125.92 -167.77,326.55 -167.77,326.55 50.75,65.19 62.73,34.63 96.5,67.93 33.76,33.3 66.46,23.17 66.46,23.17 24.1,-42.85 83.22,-201.02 77.41,-159.83 -5.82,41.2 -37.86,147.36 -37.86,147.36 46.72,32.45 135.33,0.2 135.33,0.2 45.87,-67.99 -87.63,-601.07 -87.63,-601.07 -10.4,-54.38 -21.86,-74.59 -21.86,-74.59 21.02,192.23 -59.43,229.75 -31.12,173.73 41.73,-82.6 3.4,-214.69 3.4,-214.69 10.36,176.75 -307.4,535.75 -307.4,535.75 z m 1151.16,-530.13 c -8.67,68.66 -77.96,189.56 -114.49,307.95 -36.54,118.38 -106.52,138.68 -106.52,138.68 -47.94,10.24 -244.03,-131.7 -244.03,-131.7 113.04,146.32 118.11,217.93 111.32,227.89 -6.79,9.95 -30.18,44.41 -44.57,58.99 -14.38,14.58 -74.55,20.33 -74.55,20.33 0,0 -46.89,52.15 -86.28,87.48 -39.39,35.33 -60.74,33.95 -76.74,34.83 -16,0.87 -103.39,38.81 -140.78,32.21 -37.39,-6.6 -112.15,-15.23 -162.5,-22.51 -50.35,-7.27 -106.44,-73.2 -128.71,-96.67 -22.26,-23.47 -61.98,-35.4 -79.61,-49.75 -17.62,-14.37 -65.24,-67.39 -37.26,-98.83 27.98,-31.44 99.02,-120.34 99.02,-120.34 297.07,-357.98 182.5,-494.15 154.5,-523.01 -29.14,-30.02 -114.5,-114.72 -114.5,-114.72 0,0 -139.97,-142.14 -127.85,-152.89 12.12,-10.76 133.87,71.48 133.87,71.48 13.13,25.06 24.01,41.85 144.47,157.63 120.45,115.79 244.88,32.62 405.74,-72.14 160.85,-104.77 181.6,-191.8 205.19,-197.29 23.58,-5.5 63.73,68.92 71.43,81.06 7.71,12.14 36.74,22.61 94.23,70.23 57.49,47.62 127.29,222.44 118.62,291.09"
         style="fill:#ffffff;fill-opacity:1;fill-rule:nonzero;stroke:none"
         id="path12" />
      <path
         d="M 1160.51,253.051 C 935.59,418.891 917.746,712.031 917.746,712.031 870.984,640.059 927.801,358.449 897.672,416.93 867.547,475.41 886.484,709.5 886.484,709.5 807.301,583.172 824.285,448.43 811.043,490.262 797.797,532.09 850.5,737.48 850.5,737.48 677.117,458.852 642.41,185.762 642.41,185.762 c 0,0 27.461,-2.864 94.789,-40.5 67.328,-37.653 138.184,-33.352 138.184,-33.352 -41.617,177.301 8.57,304.922 0.781,218.75 -7.793,-86.18 19,-214.039 19,-214.039 151.076,-23.3515 265.346,136.43 265.346,136.43 z m 82.2,85.461 C 1167.6,398.969 1112.26,467.18 1112.26,467.18 973.941,630.859 950.207,757.219 950.207,757.219 959.496,514.91 1191.93,297.77 1191.93,297.77 c 13,-6.77 50.78,40.742 50.78,40.742 z M 808.641,728.801 c 20.652,33.32 11.851,45.789 11.851,45.789 -277.687,-187.91 -165.5,-91.051 -165.5,-91.051 L 808.676,801.441 C 484.105,641.66 624.992,723.73 624.992,723.73 l 168.805,99 C 641.824,753.109 158.082,680.121 158.082,680.121 155.191,657.238 179.707,639.109 196.566,625.512 213.43,611.91 600.688,711.371 555.137,685.141 509.59,658.91 209.664,605.02 209.664,605.02 c 9.293,-21.27 76.75,-77.211 76.75,-77.211 -3.555,-37.368 45.41,-64.469 45.41,-64.469 77.117,22.851 205.129,83.461 264.098,112.219 9.094,4.441 18.363,-5.727 13.125,-14.387 C 508.738,395.281 468.691,288.98 468.691,288.98 520.293,210.828 601.742,225.879 601.742,225.879 601.25,408.031 808.641,728.801 808.641,728.801 Z M 328.91,1201.98 c -46.812,-11.69 -76.445,-77.51 -76.445,-77.51 C 369.172,982.109 679.332,912.359 553.418,927.441 427.504,942.531 226.871,1095.22 226.871,1095.22 161.676,1044.46 192.242,1032.48 158.941,998.711 125.637,964.949 135.77,932.25 135.77,932.25 178.617,908.148 336.793,849.031 295.594,854.84 254.398,860.66 148.238,892.699 148.238,892.699 115.785,845.98 148.035,757.371 148.035,757.371 216.031,711.5 749.105,845 749.105,845 c 54.379,10.398 74.59,21.859 74.59,21.859 C 631.469,845.84 593.945,926.289 649.973,897.98 732.574,856.25 864.66,894.578 864.66,894.578 687.91,884.219 328.91,1201.98 328.91,1201.98 Z M 859.035,50.8203 C 790.379,59.5 669.48,128.781 551.094,165.309 432.703,201.852 412.406,271.832 412.406,271.832 402.172,319.77 544.109,515.859 544.109,515.859 397.785,402.82 326.18,397.75 316.223,404.539 c -9.953,6.801 -44.414,30.191 -58.993,44.57 -14.582,14.379 -20.328,74.551 -20.328,74.551 0,0 -52.152,46.891 -87.48,86.281 -35.332,39.387 -33.953,60.739 -34.828,76.739 -0.871,16 -38.8206,103.39 -32.2151,140.781 6.6016,37.391 15.2305,112.148 22.5081,162.5 7.273,50.349 73.199,106.439 96.672,128.709 23.472,22.26 35.394,61.98 49.754,79.61 14.363,17.62 67.386,65.24 98.828,37.26 31.441,-27.98 120.339,-99.02 120.339,-99.02 357.977,-297.059 494.145,-182.5 523.008,-154.489 30.022,29.129 114.722,114.489 114.722,114.489 0,0 142.14,139.97 152.89,127.85 10.75,-12.12 -71.48,-133.87 -71.48,-133.87 -25.07,-13.13 -41.85,-24.01 -157.64,-144.469 -115.777,-120.453 -32.609,-244.883 72.15,-405.73 104.76,-160.86 191.79,-181.61 197.29,-205.199 5.5,-23.582 -68.92,-63.731 -81.06,-71.43 -12.14,-7.711 -22.61,-36.742 -70.23,-94.231 C 1102.51,111.949 927.688,42.1484 859.035,50.8203"
         style="fill:#ffffff;fill-opacity:1;fill-rule:nonzero;stroke:none"
         id="path14" />
      <path
         d="m 1445.27,1384.68 c -50.81,2.24 -136.34,3.36 -256.61,3.36 -143.44,0 -251.762,-1.12 -324.976,-3.36 v 22.41 c 26.898,1.49 46.507,4.48 58.832,8.95 12.332,4.5 20.734,13.08 25.214,25.78 4.489,12.69 6.727,33.25 6.727,61.65 v 555.81 c 0,28.38 -2.238,48.92 -6.727,61.62 -4.48,12.69 -12.882,21.3 -25.214,25.78 -12.325,4.48 -31.934,7.45 -58.832,8.96 v 22.41 c 73.214,-2.24 181.536,-3.35 324.976,-3.35 109.81,0 187.87,1.11 234.2,3.35 -5.23,-49.3 -7.84,-93.39 -7.84,-132.23 0,-29.12 1.12,-52.3 3.35,-69.47 h -25.76 c -5.24,48.56 -11.97,84.6 -20.18,108.14 -8.23,23.52 -22.04,40.71 -41.46,51.54 -19.43,10.81 -48.94,16.26 -88.52,16.26 h -93.01 c -26.89,0 -46.51,-2.08 -58.84,-6.17 -12.32,-4.12 -20.72,-12.53 -25.21,-25.22 -4.48,-12.7 -6.72,-33.24 -6.72,-61.62 v -264.47 h 73.96 c 26.14,0 46.31,6.17 60.51,18.49 14.18,12.33 23.71,26.89 28.57,43.7 4.85,16.82 8.78,37.92 11.77,63.32 l 3.36,22.41 h 25.78 c -2.24,-31.37 -3.36,-66.51 -3.36,-105.34 v -53.78 c 0,-38.1 2.24,-91.15 6.72,-159.13 h -25.77 c -0.76,5.22 -3,23.34 -6.73,54.36 -3.75,30.98 -14.01,54.34 -30.81,70.04 -16.81,15.67 -40.17,23.51 -70.04,23.51 h -73.96 v -268.92 c 0,-28.4 2.24,-48.96 6.72,-61.65 4.49,-12.7 12.89,-21.11 25.21,-25.21 12.33,-4.12 31.95,-6.15 58.84,-6.15 h 81.8 c 46.32,0 81.61,6.15 105.89,18.47 24.27,12.33 42.03,32.12 53.24,59.41 11.2,27.25 19.41,67.39 24.65,120.46 h 25.77 c -2.24,-20.17 -3.36,-47.08 -3.36,-80.68 0,-42.59 2.61,-90.41 7.84,-143.44"
         style="fill:#ffffff;fill-opacity:1;fill-rule:nonzero;stroke:none"
         id="path16" />
      <path
         d="m 2227.43,2043.59 c -26.15,-1.52 -45.58,-5.43 -58.27,-11.77 -12.71,-6.37 -21.29,-16.82 -25.77,-31.38 -4.48,-14.56 -6.72,-36.05 -6.72,-64.43 v -556.94 h -25.78 l -448.24,620.81 v -485.22 c 0,-29.13 2.43,-50.81 7.3,-64.99 4.84,-14.2 14.37,-24.47 28.57,-30.82 14.18,-6.36 36.22,-10.27 66.11,-11.76 v -22.41 c -26.9,2.24 -64.99,3.36 -114.3,3.36 -44.82,0 -79.56,-1.12 -104.22,-3.36 v 22.41 c 26.15,1.49 45.56,5.4 58.28,11.76 12.69,6.35 21.29,16.82 25.77,31.38 4.49,14.57 6.72,36.03 6.72,64.43 v 432.55 c 0,28.38 -2.23,48.93 -6.72,61.64 -4.48,12.69 -12.88,21.28 -25.22,25.76 -12.32,4.5 -31.93,7.46 -58.83,8.98 V 2066 c 24.66,-2.25 59.4,-3.37 104.22,-3.37 40.34,0 74.7,1.12 103.1,3.37 l 357.46,-497.54 v 367.55 c 0,29.13 -2.43,50.79 -7.28,64.99 -4.87,14.18 -14.39,24.45 -28.58,30.82 -14.2,6.34 -36.24,10.25 -66.11,11.77 V 2066 c 26.89,-2.25 64.99,-3.37 114.3,-3.37 44.82,0 79.56,1.12 104.21,3.37 v -22.41"
         style="fill:#ffffff;fill-opacity:1;fill-rule:nonzero;stroke:none"
         id="path18" />
      <path
         d="m 2839.29,2043.59 -395.57,-633.13 h 246.53 c 38.84,0 68.36,14 88.53,42.01 20.16,28.02 33.23,76.37 39.22,145.12 h 25.77 c -2.24,-23.16 -3.36,-53.8 -3.36,-91.88 0,-35.87 2.61,-76.21 7.84,-121.03 -53.05,2.24 -142.31,3.36 -267.82,3.36 -119.53,0 -206.57,-1.12 -261.1,-3.36 v 22.41 l 395.58,633.12 h -235.33 c -38.85,0 -68.36,-14 -88.53,-42.01 -20.17,-28.02 -33.25,-76.39 -39.21,-145.12 h -25.78 c 2.24,23.9 3.36,54.53 3.36,91.88 0,35.87 -2.62,76.21 -7.84,121.04 53.03,-2.25 142.31,-3.37 267.82,-3.37 114.3,0 197.59,1.12 249.89,3.37 v -22.41"
         style="fill:#ffffff;fill-opacity:1;fill-rule:nonzero;stroke:none"
         id="path20" />
      <path
         d="m 3184.99,2018.37 c -34.75,-28.76 -61.46,-68.74 -80.12,-119.9 -18.69,-51.18 -28.02,-109.65 -28.02,-175.37 0,-66.51 10.45,-125.15 31.38,-175.94 20.9,-50.81 49.3,-89.84 85.16,-117.1 35.86,-27.29 75.82,-40.9 119.9,-40.9 45.56,0 85.73,14.38 120.47,43.14 34.73,28.75 61.44,68.73 80.12,119.9 18.67,51.16 28.02,109.64 28.02,175.37 0,66.49 -10.48,125.13 -31.38,175.94 -20.93,50.79 -49.31,89.83 -85.17,117.1 -35.86,27.27 -75.83,40.91 -119.9,40.91 -45.57,0 -85.73,-14.41 -120.46,-43.15 z m 305.91,22.41 c 51.92,-27.27 92.07,-67.23 120.47,-119.9 28.38,-52.67 42.58,-115.62 42.58,-188.83 0,-71.71 -14.76,-135.03 -44.26,-189.93 -29.52,-54.91 -70.43,-97.49 -122.7,-127.75 -52.31,-30.26 -111.7,-45.39 -178.18,-45.39 -68.74,0 -129.06,13.64 -180.98,40.91 -51.93,27.25 -92.07,67.23 -120.45,119.9 -28.4,52.67 -42.59,115.6 -42.59,188.83 0,71.71 14.74,135.03 44.26,189.93 29.5,54.91 70.41,97.5 122.71,127.75 52.28,30.26 111.67,45.39 178.17,45.39 68.73,0 129.04,-13.66 180.97,-40.91"
         style="fill:#ffffff;fill-opacity:1;fill-rule:nonzero;stroke:none"
         id="path22" />
      <path
         d="m 1824.46,1195.6 c 28.39,-12.33 59.39,-30.44 93.01,-54.35 9.7,-7.48 17.17,-11.19 22.42,-11.19 14.18,0 23.53,22.77 28,68.34 h 25.78 c -2.99,-48.57 -4.48,-134.47 -4.48,-257.728 h -25.77 c -6.73,39.59 -13.84,72.268 -21.29,98.048 -7.49,25.78 -19.06,48.35 -34.75,67.8 -21.67,26.89 -49.86,48.19 -84.6,63.86 -34.74,15.69 -71.16,23.54 -109.26,23.54 -49.3,0 -92.64,-16.07 -129.99,-48.19 -37.36,-32.13 -66.11,-77.88 -86.28,-137.27 -20.17,-59.378 -30.26,-128.69 -30.26,-207.87 0,-134.461 21.47,-232.899 64.44,-295.27 42.95,-62.39 110.38,-93.582 202.26,-93.582 44.82,0 83.66,11.582 116.54,34.742 13.45,8.981 22.22,17.75 26.34,26.34 4.09,8.578 6.16,20.34 6.16,35.301 v 107.578 c 0,31.371 -2.99,54.16 -8.97,68.36 -5.98,14.179 -16.44,23.89 -31.37,29.132 -14.95,5.219 -39.22,8.571 -72.83,10.09 v 22.41 c 38.83,-2.242 91.5,-3.371 157.99,-3.371 50.8,0 89.65,1.129 116.54,3.371 v -22.41 c -17.19,-1.519 -29.69,-4.48 -37.54,-8.961 -7.83,-4.5 -13.08,-13.09 -15.68,-25.781 -2.63,-12.711 -3.92,-33.258 -3.92,-61.641 V 405.031 h -22.41 c -0.76,14.918 -3.75,29.309 -8.97,43.141 -5.23,13.816 -12.33,20.719 -21.29,20.719 -4.48,0 -8.97,-1.11 -13.45,-3.352 -4.48,-2.238 -12.32,-7.48 -23.53,-15.687 -26.16,-20.172 -53.23,-35.301 -81.25,-45.391 -28.01,-10.082 -59.21,-15.129 -93.56,-15.129 -76.96,0 -142.88,15.879 -197.79,47.629 -54.9,31.75 -96.92,77.5 -126.06,137.269 -29.14,59.77 -43.7,131.11 -43.7,214.04 0,85.16 15.49,160.039 46.5,224.67 30.99,64.61 73.76,114.31 128.31,149.05 54.52,34.73 116.54,52.1 186.02,52.1 44.06,0 80.29,-6.17 108.69,-18.49"
         style="fill:#ffffff;fill-opacity:1;fill-rule:nonzero;stroke:none"
         id="path24" />
      <path
         d="m 2414.99,1063.93 c -26.89,-1.51 -46.5,-4.47 -58.83,-8.97 -12.32,-4.48 -20.73,-13.07 -25.21,-25.76 -4.48,-12.71 -6.72,-33.259 -6.72,-61.649 V 523.82 c 0,-28.398 2.24,-48.961 6.72,-61.648 4.48,-12.703 12.89,-21.113 25.21,-25.211 12.33,-4.121 31.94,-6.152 58.83,-6.152 h 70.6 c 51.55,0 91.69,15.293 120.47,45.929 28.74,30.621 46.11,81.434 52.1,152.41 h 25.77 c -2.24,-23.168 -3.36,-53.789 -3.36,-91.898 0,-38.852 2.61,-82.922 7.85,-132.219 -48.57,2.239 -130.38,3.36 -245.41,3.36 -138.22,0 -242.81,-1.121 -313.77,-3.36 v 22.41 c 26.9,1.489 46.51,4.481 58.83,8.957 12.33,4.493 20.74,13.071 25.21,25.774 4.49,12.687 6.73,33.25 6.73,61.648 v 443.731 c 0,28.39 -2.24,48.939 -6.73,61.649 -4.47,12.69 -12.88,21.28 -25.21,25.76 -12.32,4.5 -31.93,7.46 -58.83,8.97 v 22.42 c 31.38,-2.24 79.18,-3.37 143.44,-3.37 59.76,0 107.19,1.13 142.31,3.37 v -22.42"
         style="fill:#ffffff;fill-opacity:1;fill-rule:nonzero;stroke:none"
         id="path26" />
      <path
         d="m 2981.46,1038.72 c -34.74,-28.77 -61.46,-68.74 -80.12,-119.9 -18.69,-51.179 -28.02,-109.648 -28.02,-175.371 0,-66.508 10.45,-125.148 31.38,-175.937 20.91,-50.813 49.31,-89.84 85.16,-117.102 35.86,-27.289 75.82,-40.898 119.9,-40.898 45.56,0 85.73,14.379 120.47,43.136 34.73,28.75 61.44,68.731 80.12,119.903 18.67,51.16 28.02,109.64 28.02,175.371 0,66.488 -10.48,125.129 -31.38,175.937 -20.93,50.789 -49.31,89.831 -85.16,117.101 -35.87,27.27 -75.84,40.91 -119.9,40.91 -45.58,0 -85.73,-14.4 -120.47,-43.15 z m 305.92,22.41 c 51.92,-27.27 92.06,-67.232 120.46,-119.9 28.38,-52.671 42.58,-115.621 42.58,-188.832 0,-71.707 -14.75,-135.027 -44.25,-189.929 -29.52,-54.91 -70.43,-97.489 -122.71,-127.75 -52.3,-30.258 -111.7,-45.387 -178.17,-45.387 -68.75,0 -129.06,13.637 -180.98,40.906 -51.94,27.262 -92.08,67.231 -120.46,119.903 -28.4,52.668 -42.58,115.609 -42.58,188.828 0,71.711 14.73,135.031 44.25,189.929 29.51,54.911 70.41,97.502 122.71,127.752 52.28,30.26 111.67,45.39 178.17,45.39 68.73,0 129.04,-13.66 180.98,-40.91"
         style="fill:#ffffff;fill-opacity:1;fill-rule:nonzero;stroke:none"
         id="path28" />
      <path
         d="m 4472.4,1086.35 v -22.42 c -20.17,-4.47 -37.36,-15.12 -51.54,-31.93 -14.2,-16.82 -27.28,-43.148 -39.22,-79.012 L 4188.9,399.422 h -17.94 L 3998.4,826.371 3815.74,399.422 h -17.93 l -228.6,592.797 c -17.93,46.301 -43.7,70.201 -77.32,71.711 v 22.42 c 29.87,-2.24 69.84,-3.37 119.91,-3.37 64.23,0 112.05,1.13 143.43,3.37 v -22.42 c -28.4,-1.51 -48.38,-5.04 -59.95,-10.65 -11.59,-5.6 -17.37,-15.51 -17.37,-29.69 0,-11.21 4.09,-29.129 12.32,-53.801 l 159.13,-433.648 135.59,321.597 -53.79,134.481 c -19.44,46.301 -45.21,70.201 -77.32,71.711 v 22.42 c 30.63,-2.24 70.6,-3.37 119.91,-3.37 64.23,0 112.05,1.13 143.43,3.37 v -22.42 c -28.4,-1.51 -48.58,-5.04 -60.52,-10.65 -11.95,-5.6 -17.92,-15.87 -17.92,-30.82 0,-12.71 4.48,-30.241 13.44,-52.671 l 162.49,-425.801 119.9,350.731 c 14.18,41.832 21.29,74.691 21.29,98.609 0,24.652 -6.91,42.202 -20.73,52.672 -13.83,10.45 -34.56,16.42 -62.19,17.93 v 22.42 c 22.41,-2.24 56.39,-3.37 101.97,-3.37 47.07,0 79.57,1.13 97.49,3.37"
         style="fill:#ffffff;fill-opacity:1;fill-rule:nonzero;stroke:none"
         id="path30" />
    </g>
  </g>
</svg>
